<?xml version="1.0" standalone="no"?>
<!DOCTYPE svg PUBLIC "-//W3C//DTD SVG 20010904//EN"
 "http://www.w3.org/TR/2001/REC-SVG-20010904/DTD/svg10.dtd">
<svg version="1.0" xmlns="http://www.w3.org/2000/svg"
 width="390.150944pt" height="439.925157pt" viewBox="0 0 390.150944 439.925157"
 preserveAspectRatio="xMidYMid meet">
<metadata>
Created by potrace 1.12, written by Peter Selinger 2001-2015
</metadata>
<g transform="translate(-67.843798,462.934924) scale(0.100000,-0.100000)"
fill="#000000" stroke="none">
<path d="M1671 4400 c-703 -188 -862 -234 -895 -257 -55 -38 -98 -123 -98
-190 1 -52 934 -3574 955 -3603 57 -77 132 -120 209 -120 59 0 2543 659 2606
691 73 38 132 133 132 213 0 39 -714 2722 -730 2741 -6 7 -52 37 -103 66 -51
29 -132 76 -182 105 -491 287 -1012 584 -1024 583 -9 0 -401 -103 -870 -229z
m811 23 c3 -10 50 -184 104 -388 111 -416 120 -436 213 -489 89 -49 125 -44
551 72 269 73 368 96 376 88 6 -6 18 -38 27 -71 9 -33 160 -602 336 -1265 177
-663 321 -1217 321 -1232 0 -65 -4 -67 -570 -217 -289 -77 -857 -228 -1262
-336 -705 -187 -738 -195 -766 -181 -16 8 -34 28 -41 43 -11 28 -84 302 -546
2038 -130 490 -270 1015 -311 1168 -41 152 -74 286 -74 297 0 10 10 31 23 45
19 23 68 38 377 120 195 52 546 146 780 209 234 63 432 115 441 115 9 1 19 -7
21 -16z m366 -154 c86 -50 282 -163 435 -251 152 -88 277 -163 277 -167 0 -8
-617 -172 -647 -171 -12 0 -34 10 -48 23 -23 19 -38 65 -110 337 -47 173 -85
316 -85 318 -1 11 43 -11 178 -89z"/>
<path d="M2180 4006 c-42 -11 -45 -15 -42 -42 3 -24 18 -64 39 -106 2 -3 -30
-4 -71 -1 l-75 6 -6 -35 c-4 -20 -5 -46 -3 -59 3 -23 7 -24 76 -24 39 0 72 -1
72 -3 0 -1 -11 -24 -24 -50 -43 -85 -42 -86 16 -107 l51 -18 18 22 c10 12 21
39 24 59 11 63 12 64 61 17 25 -25 52 -45 59 -45 8 0 30 17 49 37 l35 38 -25
26 c-14 15 -41 35 -60 45 -19 10 -34 21 -34 24 0 3 29 20 64 39 l65 34 -31 46
c-17 25 -32 47 -34 49 -4 6 -47 -19 -86 -50 -21 -16 -38 -28 -39 -26 0 1 -3
17 -5 33 -10 62 -25 105 -37 104 -7 -1 -32 -6 -57 -13z"/>
<path d="M1688 3872 c-65 -18 -65 -21 -27 -111 11 -24 18 -46 16 -48 -2 -2
-26 1 -54 6 -67 13 -89 6 -97 -31 -15 -77 -14 -78 73 -78 l79 0 -35 -66 c-20
-37 -31 -70 -27 -74 5 -5 31 -15 57 -22 45 -12 50 -11 63 6 7 11 16 36 20 55
10 66 11 66 64 17 27 -25 53 -46 59 -46 5 0 26 19 46 42 l36 43 -33 28 c-18
15 -46 35 -62 43 l-29 16 62 35 c33 19 61 40 61 46 0 19 -49 87 -63 87 -15 0
-53 -24 -89 -58 -16 -14 -28 -24 -29 -21 0 2 -2 19 -5 38 -4 36 -23 112 -27
110 -1 0 -28 -8 -59 -17z"/>
<path d="M1187 3735 c-27 -7 -51 -16 -54 -19 -3 -3 4 -32 16 -64 11 -33 21
-62 21 -66 0 -3 -33 -5 -72 -4 l-73 3 -3 -57 -3 -58 76 0 c41 0 75 -2 75 -4 0
-2 -11 -23 -24 -47 -42 -77 -42 -84 4 -103 62 -25 76 -21 94 24 9 22 16 49 16
59 0 34 13 31 61 -14 28 -26 54 -43 62 -39 8 3 29 23 46 44 l31 39 -44 33
c-24 18 -52 38 -62 44 -16 9 -10 15 44 45 34 18 62 37 62 42 0 16 -53 87 -65
87 -7 0 -36 -16 -65 -35 -29 -19 -54 -35 -56 -35 -2 0 -4 12 -4 26 0 33 -21
114 -29 113 -3 0 -28 -7 -54 -14z"/>
<path d="M3473 3168 c-39 -13 -41 -27 -13 -100 11 -29 20 -54 20 -55 0 -1 -16
3 -36 8 -19 6 -52 9 -72 7 -36 -4 -37 -5 -44 -53 -4 -27 -5 -52 -2 -57 3 -4
38 -8 78 -8 l73 0 -30 -60 c-16 -32 -27 -66 -24 -74 7 -18 79 -41 101 -33 8 3
23 32 32 64 10 32 19 60 20 61 2 2 19 -12 38 -32 61 -60 69 -61 110 -16 20 22
36 43 36 48 -1 7 -18 21 -82 65 l-37 25 59 31 c33 18 61 35 64 39 8 13 -48 92
-65 92 -9 0 -37 -16 -63 -36 -26 -20 -49 -34 -50 -32 -2 1 -9 31 -16 66 -12
57 -15 62 -39 61 -14 -1 -41 -6 -58 -11z"/>
<path d="M2991 3034 c-30 -8 -56 -16 -57 -17 -2 -2 28 -91 40 -118 6 -15 -2
-17 -66 -15 l-73 1 -3 -57 -3 -58 74 0 74 0 -29 -56 c-35 -70 -35 -82 0 -95
63 -24 79 -23 95 7 8 16 17 46 21 67 4 20 10 37 13 37 3 0 26 -18 50 -41 24
-22 51 -39 60 -37 9 2 30 20 47 41 l30 38 -29 25 c-17 13 -43 31 -58 40 -15 8
-25 19 -22 23 3 5 30 23 60 40 30 17 55 33 55 36 0 20 -56 85 -73 85 -19 0
-88 -45 -95 -62 -10 -22 -20 -1 -31 62 -7 39 -16 70 -19 69 -4 0 -32 -7 -61
-15z"/>
<path d="M2483 2897 c-50 -12 -53 -22 -23 -98 12 -28 19 -53 17 -55 -2 -2 -25
0 -53 4 -82 12 -91 8 -96 -46 -3 -26 -3 -50 -1 -54 2 -5 37 -8 78 -8 l74 0
-30 -57 c-16 -32 -29 -65 -29 -73 0 -18 52 -40 92 -40 27 0 37 18 53 98 4 17
8 32 9 32 1 0 24 -20 49 -45 26 -25 52 -45 58 -45 12 0 79 69 79 81 0 10 -89
79 -101 79 -24 0 -4 22 39 44 80 42 78 38 43 90 -18 25 -35 46 -39 46 -11 0
-75 -40 -99 -63 l-23 -20 0 20 c0 12 -5 44 -12 72 -12 55 -13 56 -85 38z"/>
<path d="M1990 2761 c-62 -19 -65 -28 -30 -108 l19 -43 -69 3 c-37 1 -71 -1
-74 -4 -4 -4 -9 -29 -13 -58 l-6 -51 80 0 80 0 -34 -66 c-18 -36 -31 -70 -28
-74 7 -12 93 -33 109 -27 13 5 27 38 40 100 l7 28 50 -45 c28 -25 54 -46 58
-46 4 0 18 12 32 28 56 61 56 57 -9 105 l-60 44 59 33 c32 19 59 39 59 45 0
19 -50 85 -65 85 -7 0 -34 -16 -59 -35 -26 -19 -48 -35 -50 -35 -2 0 -9 26
-15 58 -16 82 -17 82 -81 63z"/>
<path d="M1485 2623 c-27 -8 -51 -16 -53 -17 -4 -5 18 -69 45 -128 2 -3 -30
-4 -71 -1 l-74 6 -7 -46 c-11 -72 -6 -77 75 -77 38 0 70 -1 70 -2 0 -2 -14
-30 -30 -63 -19 -39 -26 -63 -19 -71 12 -15 94 -38 107 -30 5 3 18 35 27 71
l18 66 45 -46 c25 -25 51 -45 57 -45 13 0 31 15 64 53 28 31 29 30 -57 86 -47
32 -46 34 26 70 24 12 45 28 48 36 3 7 -7 31 -21 54 -24 36 -29 39 -52 30 -14
-5 -43 -23 -63 -39 l-38 -30 -6 38 c-10 52 -26 102 -34 101 -4 0 -29 -7 -57
-16z"/>
<path d="M3787 2075 c-27 -7 -50 -15 -52 -17 -3 -3 22 -81 39 -119 6 -14 -2
-15 -67 -11 l-74 4 -6 -48 c-7 -69 3 -78 80 -71 35 4 63 3 63 -1 0 -4 -13 -34
-29 -67 -16 -33 -27 -63 -25 -67 3 -4 28 -14 56 -23 47 -14 52 -14 64 3 7 9
16 33 20 52 13 75 11 74 66 25 28 -25 55 -45 60 -45 12 0 78 70 78 82 0 4 -25
24 -55 45 -30 21 -54 41 -55 44 0 4 25 19 56 35 30 15 57 31 60 35 5 8 -56 99
-66 99 -4 0 -32 -17 -62 -39 l-55 -39 -14 66 c-8 36 -18 66 -24 68 -5 1 -32
-4 -58 -11z"/>
<path d="M3295 1943 c-11 -3 -30 -9 -43 -14 l-22 -9 25 -66 c14 -36 25 -68 25
-69 0 -2 -19 1 -42 7 -24 5 -57 7 -74 3 -32 -6 -44 -30 -44 -91 0 -23 3 -24
75 -24 41 0 75 -2 75 -4 0 -2 -14 -33 -30 -68 l-30 -63 37 -17 c59 -27 82 -23
99 17 7 19 14 45 14 59 0 40 14 38 65 -9 26 -25 51 -45 55 -45 4 0 24 18 44
41 43 47 41 51 -35 101 -27 17 -49 33 -49 35 0 1 24 15 53 29 81 41 81 40 46
90 -16 24 -36 44 -44 44 -7 0 -35 -16 -60 -36 -26 -19 -48 -34 -50 -32 -1 2
-8 30 -16 63 -15 63 -25 71 -74 58z"/>
<path d="M2783 1803 c-49 -14 -52 -17 -47 -42 4 -14 14 -45 24 -67 l18 -41
-77 1 -76 1 0 -55 0 -55 73 1 c39 0 72 -1 72 -3 0 -2 -9 -22 -20 -44 -41 -80
-42 -87 -12 -103 15 -7 41 -17 58 -20 30 -7 32 -5 48 34 9 22 16 51 16 65 0
32 16 41 30 16 17 -33 77 -73 98 -67 11 4 31 23 45 43 l26 36 -37 30 c-20 16
-47 34 -59 40 -13 6 -23 13 -23 17 0 4 23 17 50 30 71 33 76 42 51 84 -37 59
-42 60 -104 17 l-56 -39 -6 31 c-14 67 -26 107 -33 106 -4 0 -31 -8 -59 -16z"/>
<path d="M2280 1666 c-42 -11 -45 -15 -42 -42 3 -24 17 -62 38 -105 2 -4 -31
-6 -74 -5 l-77 1 -3 -52 -3 -53 75 0 c42 0 76 -2 76 -4 0 -2 -14 -32 -31 -66
-19 -39 -27 -66 -21 -72 5 -5 30 -15 56 -23 44 -14 47 -13 60 8 8 12 18 40 22
62 3 22 9 44 11 48 3 4 27 -12 53 -37 27 -26 53 -46 58 -46 9 0 82 75 82 84 0
2 -27 22 -61 46 l-61 43 57 30 c31 17 59 37 62 43 2 7 -8 31 -23 53 -32 49
-45 48 -111 -6 -24 -19 -43 -33 -44 -31 0 2 -3 17 -5 33 -10 62 -25 105 -37
104 -7 -1 -32 -6 -57 -13z"/>
<path d="M1770 1527 c-40 -14 -42 -31 -9 -105 l19 -44 -72 4 -73 3 -9 -42
c-14 -66 -7 -73 74 -73 38 0 70 -2 70 -4 0 -2 -13 -31 -30 -64 -16 -34 -30
-63 -30 -66 0 -3 25 -13 56 -23 54 -17 57 -17 69 1 8 10 17 37 20 59 4 23 9
45 12 50 2 4 27 -13 55 -38 28 -25 54 -45 58 -45 5 0 24 19 44 42 41 48 40 51
-36 101 -37 23 -46 34 -37 40 8 4 38 21 67 38 l52 30 -30 44 c-17 25 -37 45
-44 45 -8 0 -36 -16 -64 -35 l-50 -34 -14 62 c-12 55 -16 62 -38 64 -14 1 -41
-3 -60 -10z"/>
</g>
</svg>
